<svg width="147" height="25" viewBox="0 0 147 25" fill="none" xmlns="http://www.w3.org/2000/svg">
<g clip-path="url(#clip0)">
<path d="M9.49685 16.1071C9.95418 16.16 10.4172 16.0778 10.8267 15.871C11.2363 15.6642 11.5737 15.3422 11.7958 14.9461C12.0238 14.5945 12.164 14.1951 12.205 13.7803C12.3756 11.9325 12.3756 10.0734 12.205 8.22564C11.7456 8.19244 11.286 8.28885 10.8804 8.50352C10.4748 8.7182 10.1402 9.0422 9.91586 9.43738C9.43121 10.2068 9.26174 11.9783 9.40746 14.752C9.4134 15.2049 9.44324 15.6572 9.49685 16.1071Z" fill="#055FF0"/>
<path d="M5.74813 20.1668C6.04076 19.9638 6.28911 19.7055 6.47861 19.4069C6.72409 18.9477 6.87546 18.4456 6.92415 17.9291C7.03975 16.6964 7.05959 15.4569 6.98351 14.2212C6.90894 12.9138 6.92854 11.6028 7.04217 10.298C7.16642 9.62617 7.41393 8.98207 7.77264 8.3971C8.23104 7.66779 8.89587 7.08541 9.68588 6.72115C10.4759 6.35689 11.3569 6.22653 12.2211 6.34599L12.3308 5.70069C12.4749 5.0754 12.7209 4.47705 13.0591 3.9287C13.5596 3.1052 14.3073 2.4539 15.1996 2.06412L12.0954 0.299663C11.749 0.10327 11.3561 -0.00012207 10.9561 -0.00012207C10.5561 -0.00012207 10.1631 0.10327 9.81671 0.299663L1.13974 5.21998C0.791296 5.41744 0.502299 5.70196 0.302119 6.04464C0.10194 6.38731 -0.00228473 6.77592 3.799e-05 7.17096V16.9972C0.000298966 17.3898 0.105749 17.7754 0.305799 18.1153C0.505849 18.4553 0.793457 18.7375 1.13974 18.9338L3.88634 20.4904C4.52639 20.5999 5.18525 20.4853 5.74813 20.1668Z" fill="#055FF0"/>
<path d="M20.7729 5.22006L18.7344 4.0577L18.2596 3.93563C16.7991 3.62018 15.7716 3.93586 15.1771 4.88267C14.9372 5.32986 14.7813 5.81582 14.7168 6.31727C14.5866 7.55412 14.5719 8.80008 14.6728 10.0396C14.756 11.3685 14.734 12.7017 14.6072 14.0272C14.496 14.7071 14.2476 15.3582 13.8767 15.9426C13.4026 16.6656 12.73 17.2424 11.9365 17.6064C11.143 17.9704 10.2609 18.1068 9.39194 17.9998C9.36741 18.2959 9.32591 18.5903 9.26764 18.8817C9.1505 19.449 8.91951 19.9878 8.58815 20.4665C8.0432 21.0918 7.41756 21.6446 6.72705 22.111L9.79978 23.8542C10.1462 24.0506 10.5391 24.1539 10.9391 24.1539C11.3391 24.1539 11.7321 24.0506 12.0785 23.8542L20.7701 18.9338C21.1164 18.7376 21.404 18.4553 21.6041 18.1154C21.8041 17.7755 21.9096 17.3899 21.9098 16.9973V7.17104C21.9124 6.77626 21.8086 6.38784 21.6089 6.04519C21.4093 5.70254 21.1208 5.41787 20.7729 5.22006Z" fill="#055FF0"/>
<path d="M106.375 21.4005L99.6988 9.98948V20.5543C99.6649 21.0603 99.4331 21.5339 99.0519 21.876C98.6707 22.2181 98.1696 22.4023 97.6533 22.39C97.1445 22.4015 96.6517 22.2149 96.2824 21.871C95.9131 21.5271 95.6972 21.0538 95.6819 20.5543V3.88623C95.6843 3.6222 95.7415 3.36142 95.8499 3.11981C95.9584 2.8782 96.1158 2.66083 96.3126 2.48095C96.5095 2.30108 96.7416 2.16247 96.9948 2.0736C97.248 1.98473 97.517 1.94745 97.7853 1.96405C98.1733 1.96946 98.5542 2.06764 98.8949 2.2501C99.2356 2.43255 99.5259 2.69379 99.7407 3.0112C102.304 7.36508 103.772 9.93256 106.416 14.4867V3.79982C106.45 3.2938 106.682 2.82024 107.063 2.47812C107.444 2.136 107.945 1.95181 108.462 1.96405C108.715 1.95637 108.967 1.99777 109.204 2.08589C109.441 2.17401 109.658 2.30712 109.842 2.47761C110.027 2.6481 110.175 2.85263 110.279 3.0795C110.383 3.30637 110.441 3.55114 110.448 3.79982V20.4685C110.443 20.734 110.382 20.9956 110.271 21.2376C110.16 21.4795 109.999 21.6968 109.8 21.8762C109.601 22.0557 109.366 22.1936 109.111 22.2817C108.856 22.3697 108.586 22.4061 108.316 22.3887C107.935 22.3901 107.559 22.3009 107.22 22.1285C106.882 21.9562 106.591 21.7059 106.373 21.3991L106.375 21.4005Z" fill="#055FF0"/>
<path d="M119.808 22.3406C118.123 22.4241 116.468 21.8876 115.165 20.8361C114.64 20.3594 114.226 19.7777 113.949 19.1302C113.673 18.4828 113.541 17.7847 113.562 17.0829V12.8724C113.562 9.6788 116.014 7.61536 119.808 7.61536C123.602 7.61536 126.052 9.6788 126.052 12.8724V17.0829C126.052 20.2765 123.6 22.3406 119.808 22.3406ZM119.808 10.9502C119.198 10.9105 118.595 11.0902 118.11 11.4556C117.916 11.6309 117.763 11.8464 117.664 12.0865C117.564 12.3267 117.52 12.5855 117.535 12.8443V17.0829C117.535 18.3043 118.363 19.0031 119.808 19.0031C121.252 19.0031 122.079 18.3022 122.079 17.0829V12.8443C122.082 11.6408 121.251 10.9502 119.808 10.9502Z" fill="#055FF0"/>
<path d="M137.987 16.402C137.731 15.2644 137.548 14.1121 137.439 12.9519C137.264 14.1136 137.176 15.2684 136.892 16.402L135.715 20.9204C135.431 21.9388 134.707 22.3564 133.524 22.3564C133.002 22.3868 132.486 22.2328 132.069 21.9221C131.653 21.6115 131.363 21.1647 131.252 20.6626L127.914 9.81046C127.869 9.694 127.849 9.56951 127.855 9.44495C127.899 8.96481 128.13 8.52004 128.501 8.20398C128.872 7.88792 129.353 7.72512 129.843 7.74975C130.254 7.7304 130.66 7.84454 130.997 8.0745C131.335 8.30447 131.587 8.63743 131.713 9.02183L132.947 13.685C133.226 15.1069 133.418 16.5438 133.524 17.9881C133.758 16.5535 133.809 15.1189 134.189 13.685L135.343 9.19533C135.478 8.75288 135.763 8.36913 136.151 8.10788C136.539 7.84664 137.006 7.72364 137.475 7.75935C137.937 7.72353 138.397 7.8473 138.776 8.10926C139.155 8.37121 139.428 8.7549 139.549 9.19396L140.674 13.6836C141.018 15.1182 141.135 16.5528 141.361 17.9868C141.468 16.5426 141.66 15.1057 141.938 13.6836L143.172 9.02046C143.314 8.64615 143.57 8.3236 143.904 8.09636C144.239 7.86911 144.636 7.74813 145.043 7.74975C145.534 7.72667 146.014 7.89434 146.38 8.21648C146.746 8.53862 146.968 8.9893 146.998 9.471V9.75079L143.66 20.6886C143.573 21.1999 143.288 21.6585 142.865 21.9691C142.443 22.2797 141.914 22.4184 141.39 22.3564C140.914 22.3915 140.44 22.2693 140.043 22.0094C139.646 21.7495 139.349 21.3666 139.199 20.9218L137.987 16.402Z" fill="#055FF0"/>
<path d="M30.4458 22.3763H30.406C29.8951 22.378 29.4035 22.1843 29.0355 21.8362C28.6675 21.4882 28.452 21.0131 28.4346 20.5117V4.25167C28.4646 3.70174 28.7082 3.18404 29.1152 2.80516C29.5222 2.42628 30.0617 2.21505 30.6225 2.21497H35.6359C38.122 2.21497 40.0055 2.84861 41.2339 4.09874C42.2693 5.21956 42.8203 6.69188 42.7702 8.20438C42.8324 9.42039 42.4697 10.6208 41.7422 11.6067C41.0148 12.5927 39.9662 13.3051 38.7701 13.626L42.7144 19.4494C42.8998 19.7098 43.0068 20.0162 43.023 20.3335C43.0392 20.6508 42.9639 20.9662 42.8059 21.2434C42.6224 21.5701 42.3562 21.8448 42.033 22.0409C41.7098 22.2369 41.3405 22.3477 40.9608 22.3625H40.8784C40.5584 22.363 40.2432 22.286 39.9607 22.1382C39.6782 21.9905 39.4372 21.7767 39.259 21.5156L34.4236 14.056H32.4682V20.511C32.4362 21.0163 32.2092 21.4905 31.8334 21.8371C31.4576 22.1837 30.9614 22.3765 30.4458 22.3763ZM32.4661 5.80834V10.4996H35.6869C37.6555 10.4996 38.7394 9.68699 38.7394 8.21124C38.701 6.59422 37.6472 5.81108 35.5186 5.81108L32.4661 5.80834Z" fill="#055FF0"/>
<path d="M48.4108 22.3735C47.9125 22.3706 47.4331 22.1857 47.066 21.8549C46.6989 21.5241 46.4703 21.0709 46.4247 20.5837V9.45175C46.4831 8.97474 46.7175 8.53529 47.0835 8.2165C47.4495 7.8977 47.9218 7.72166 48.4111 7.72166C48.9004 7.72166 49.3727 7.8977 49.7387 8.2165C50.1047 8.53529 50.3391 8.97474 50.3975 9.45175V20.5837C50.3574 21.0731 50.1303 21.5295 49.7618 21.8615C49.3934 22.1934 48.9108 22.3763 48.4108 22.3735ZM48.5358 5.92764C48.4925 5.92764 48.4485 5.92764 48.4052 5.92352C48.3619 5.91941 48.329 5.92352 48.2913 5.92352C47.7458 5.92379 47.2208 5.71867 46.8246 5.35039C46.4284 4.9821 46.191 4.47868 46.1614 3.94374C46.217 3.39678 46.4776 2.88963 46.8927 2.52076C47.3077 2.15189 47.8475 1.94763 48.4073 1.94763C48.967 1.94763 49.5068 2.15189 49.9219 2.52076C50.3369 2.88963 50.5975 3.39678 50.6531 3.94374C50.6281 4.47849 50.3941 4.98318 49.9997 5.35273C49.6053 5.72227 49.0809 5.9282 48.5358 5.92764Z" fill="#055FF0"/>
<path d="M64.6291 25.0008C63.6214 25.0008 62.5306 24.6524 62.3393 24.2697C62.0537 23.8624 61.6716 23.5293 61.2259 23.2993C60.7801 23.0692 60.2841 22.949 59.7805 22.949H59.68C59.5207 22.949 55.7776 22.9305 54.9396 21.2922C54.2496 19.944 54.2782 19.6464 54.3152 19.2747C54.3265 19.1752 54.3325 19.0751 54.3334 18.975C54.3407 18.2145 54.6257 17.4819 55.1365 16.9102C54.5461 16.4418 54.0731 15.8465 53.7539 15.1702C53.4348 14.4939 53.278 13.7547 53.2957 13.0096C53.2729 12.3052 53.3947 11.6036 53.6539 10.9464C53.913 10.2893 54.3042 9.69004 54.8041 9.18443C55.3727 8.66378 56.0411 8.25951 56.7705 7.99519C57.4998 7.73087 58.2754 7.61179 59.0521 7.6449C60.3977 7.65573 61.7208 7.98507 62.9091 8.60496C63.1824 8.16934 63.5549 7.80195 63.9973 7.53171C64.4398 7.26147 64.9401 7.09575 65.4588 7.04761L65.5384 7.04761C65.9916 7.04928 66.4276 7.21863 66.7593 7.52188C67.091 7.82514 67.2942 8.24003 67.3283 8.68383C67.3281 8.87569 67.287 9.0654 67.2078 9.24077C67.1285 9.41615 67.0128 9.57331 66.868 9.70218C65.875 10.5655 65.5747 10.8254 65.5747 11.6223V13.2098C65.6002 13.8913 65.478 14.5703 65.2163 15.2019C64.9546 15.8336 64.5593 16.4034 64.0565 16.8738C62.7432 17.9223 61.0777 18.45 59.388 18.353H59.307C58.8023 18.353 58.2987 18.3048 57.8035 18.209C57.6966 18.4109 57.6369 18.6337 57.6289 18.8612C57.6289 19.4605 57.8992 19.765 58.432 19.765H59.6192C62.1514 19.765 64.2464 20.4508 65.3687 21.6419C65.685 21.9672 65.9264 22.3556 66.0763 22.7806C66.2262 23.2057 66.2811 23.6574 66.2374 24.1052C66.2046 24.6716 65.618 25.0008 64.6291 25.0008ZM59.3566 10.7507C59.061 10.7506 58.7688 10.8123 58.4995 10.9318C58.2301 11.0513 57.9897 11.2257 57.7943 11.4435C57.5989 11.6613 57.4531 11.9175 57.3664 12.195C57.2797 12.4724 57.2542 12.7649 57.2916 13.0528C57.2464 13.6588 57.4438 14.2581 57.8419 14.7233C58.062 14.9217 58.3212 15.0738 58.6034 15.1701C58.8857 15.2665 59.185 15.3051 59.483 15.2836C59.5604 15.2931 59.6383 15.2979 59.7163 15.298C59.9834 15.2979 60.2474 15.2421 60.4909 15.1343C60.7343 15.0265 60.9517 14.8691 61.1286 14.6726C61.3055 14.4761 61.4378 14.2449 61.5169 13.9944C61.5959 13.7439 61.6199 13.4797 61.5871 13.2194V11.2383C60.9472 10.9397 60.2506 10.7761 59.5424 10.7582C59.4809 10.7507 59.4181 10.7507 59.3566 10.7507Z" fill="#055FF0"/>
<path d="M73.5219 20.5838C73.5155 20.8252 73.4597 21.063 73.3577 21.2829C73.2558 21.5027 73.1098 21.7002 72.9285 21.8635C72.7473 22.0268 72.5343 22.1526 72.3025 22.2334C72.0707 22.3142 71.8246 22.3483 71.5791 22.3338C71.3309 22.3503 71.0818 22.3178 70.8466 22.2383C70.6114 22.1587 70.3948 22.0336 70.2096 21.8705C70.0244 21.7074 69.8743 21.5095 69.7683 21.2885C69.6623 21.0675 69.6024 20.8279 69.5923 20.5838V3.36985C69.6206 2.88507 69.8412 2.43046 70.2066 2.10336C70.5721 1.77627 71.0535 1.60269 71.5477 1.6198C71.796 1.603 72.0453 1.63528 72.2808 1.71472C72.5163 1.79416 72.7331 1.91916 72.9185 2.08231C73.104 2.24547 73.2542 2.44347 73.3603 2.66462C73.4665 2.88577 73.5264 3.12557 73.5365 3.36985V8.42663C74.3596 7.93408 75.3039 7.67115 76.2678 7.66613C79.9194 7.66613 81.6213 9.70283 81.6213 12.6077V20.5838C81.5913 21.0774 81.3628 21.539 80.9862 21.8672C80.6095 22.1954 80.1155 22.3632 79.6129 22.3338C79.3644 22.3507 79.1151 22.3185 78.8795 22.2391C78.644 22.1597 78.427 22.0347 78.2415 21.8716C78.056 21.7084 77.9058 21.5104 77.7996 21.2892C77.6934 21.068 77.6334 20.8281 77.6233 20.5838V12.3355C77.6233 11.2595 77.1631 10.7219 75.9801 10.7219C75.0667 10.7272 74.1865 11.0587 73.5037 11.6545L73.5219 20.5838Z" fill="#055FF0"/>
<path d="M85.3101 5.29882C85.3691 4.82221 85.6038 4.38333 85.9699 4.065C86.3359 3.74667 86.8079 3.57092 87.2969 3.57092C87.7858 3.57092 88.2578 3.74667 88.6238 4.065C88.9899 4.38333 89.2246 4.82221 89.2837 5.29882V8.43342H91.4164C91.655 8.41889 91.8941 8.45146 92.1197 8.5292C92.3452 8.60694 92.5526 8.72828 92.7296 8.88605C92.9066 9.04381 93.0496 9.23481 93.1502 9.44775C93.2508 9.6607 93.3069 9.89128 93.3152 10.1259C93.306 10.3589 93.2491 10.5878 93.1478 10.7988C93.0465 11.0098 92.903 11.1986 92.7258 11.3538C92.5485 11.5091 92.3412 11.6277 92.1163 11.7026C91.8913 11.7775 91.6533 11.807 91.4164 11.7895H89.2837V16.0645C89.2837 18.152 89.4589 18.8905 90.8396 18.8905H91.3284C93.1399 18.8905 93.6874 19.3706 93.6874 20.4184C93.6874 22.0539 92.3655 22.283 90.9269 22.283C86.4644 22.283 85.3177 20.1311 85.3177 16.2943L85.3101 5.29882Z" fill="#055FF0"/>
</g>
<defs>
<clipPath id="clip0">
<rect width="147" height="25" fill="white"/>
</clipPath>
</defs>
</svg>
